<?xml version="1.0" encoding="utf-8"?>
<!-- Generator: Adobe Illustrator 19.2.1, SVG Export Plug-In . SVG Version: 6.00 Build 0)  -->
<svg version="1.1" id="Layer_1" xmlns="http://www.w3.org/2000/svg" xmlns:xlink="http://www.w3.org/1999/xlink" x="0px" y="0px"
	 viewBox="0 0 255 80" style="enable-background:new 0 0 255 80;" xml:space="preserve">
<style type="text/css">
	.st0{fill:#FFFFFF;}
</style>
<g>
	<g>
		<path class="st0" d="M72.2,80H7.8V69.1h64.4V80z M10.9,76.9h58.2v-4.7H10.9V76.9z"/>
	</g>
	<g>
		<path class="st0" d="M72.2,10.9H7.8V0h64.4V10.9z M10.9,7.8h58.2V3.1H10.9V7.8z"/>
	</g>
	<g>
		<path class="st0" d="M80,72.2H69.1V7.8H80V72.2z M72.2,69.1h4.7V10.9h-4.7V69.1z"/>
	</g>
	<g>
		<path class="st0" d="M10.9,72.2H0V7.8h10.9V72.2z M3.1,69.1h4.7V10.9H3.1V69.1z"/>
	</g>
	<g>
		<path class="st0" d="M72.2,72.2H7.8V7.8h64.4V72.2z M10.9,69.1h58.2V10.9H10.9V69.1z"/>
	</g>
	<polygon class="st0" points="76.9,0 76.9,7.8 72.2,7.8 72.2,0 69.1,0 69.1,10.9 80,10.9 80,0 	"/>
	<polygon class="st0" points="74.3,76.9 72.2,76.9 72.2,72.2 72.5,72.2 76.9,72.2 80,72.2 80,69.1 69.1,69.1 69.1,80 80,80 80,76.9 
		76.9,76.9 	"/>
	<polygon class="st0" points="0,0 0,3.1 3.1,3.1 5,3.1 7.8,3.1 7.8,7.8 5.2,7.8 3.1,7.8 0,7.8 0,10.9 10.9,10.9 10.9,0 	"/>
	<polygon class="st0" points="10.9,69.1 0,69.1 0,80 3.1,80 3.1,76.9 3.1,74.4 3.1,72.2 7.8,72.2 7.8,74.2 7.8,76.9 7.8,80 10.9,80 
			"/>
	<polygon class="st0" points="50,28.1 45,28.1 45,23.2 50.1,23.2 54.9,23.2 58,23.2 58,20.1 41.9,20.1 22.1,20.1 22.1,23.2 
		25.1,23.2 30.9,23.2 41.9,23.2 41.9,28.1 37.6,28.1 30.3,28.1 25.1,28.1 22.1,28.1 22.1,31.2 25.1,31.2 31.1,31.2 34.5,31.2 
		34.5,52.4 34.5,58.1 34.5,61.2 37.6,61.2 37.6,58.1 37.6,49.1 37.6,31.2 41.9,31.2 41.9,52 41.9,58.1 41.9,61.2 45,61.2 45,58.1 
		45,52.7 45,31.2 49.3,31.2 54.9,31.2 58,31.2 58,28.1 54.9,28.1 	"/>
	<g>
		<path class="st0" d="M111.6,18.5v34.4h-8.1V18.5H92.6v-7.3h29.9v7.3H111.6z"/>
		<path class="st0" d="M144.2,52.9l-2.5-7.4H127l-2.5,7.4H116l15.1-41.6h6.4l15.2,41.6H144.2z M134.5,23.5l-5.3,15.1h10.3
			L134.5,23.5z"/>
		<path class="st0" d="M182.8,43.2c-0.6,2-1.6,3.7-3.1,5.2c-1.7,1.8-3.5,3-5.5,3.7c-2,0.7-4.1,1.1-6.3,1.1c-2.3,0-4.4-0.4-6.2-1.2
			c-1.9-0.8-3.5-1.9-5-3.4c-1.1-1.1-1.9-2.2-2.4-3.4c-0.6-1.2-1-2.5-1.2-3.8c-0.2-1.4-0.4-2.8-0.4-4.4c0-1.6-0.1-3.2-0.1-5
			c0-1.8,0-3.5,0.1-5c0-1.6,0.2-3,0.4-4.4c0.2-1.4,0.6-2.6,1.2-3.8c0.6-1.2,1.4-2.3,2.4-3.4c1.5-1.5,3.1-2.6,5-3.4
			c1.8-0.8,3.9-1.2,6.3-1.2c2.4,0,4.5,0.4,6.4,1.1c1.8,0.7,3.4,1.7,4.7,2.9c1.3,1.2,2.3,2.7,3.1,4.3c0.8,1.6,1.3,3.3,1.5,5.1h-8.2
			c-0.5-2-1.3-3.5-2.5-4.5c-1.2-1-2.9-1.5-5-1.5c-1.1,0-2.1,0.2-3,0.6c-0.9,0.4-1.6,0.9-2.2,1.6c-0.4,0.4-0.7,0.9-1,1.4
			c-0.3,0.5-0.5,1.2-0.6,2.1s-0.3,1.9-0.3,3.2c-0.1,1.3-0.1,3-0.1,4.9s0,3.6,0.1,5c0.1,1.3,0.2,2.4,0.3,3.3c0.2,0.9,0.4,1.6,0.6,2.1
			c0.3,0.5,0.6,1,1,1.4c0.6,0.7,1.3,1.2,2.2,1.6c0.9,0.4,1.9,0.6,3,0.6c1.2,0,2.4-0.2,3.3-0.6c1-0.4,1.8-1,2.5-1.7
			c0.7-0.8,1.1-1.6,1.4-2.5c0.3-0.9,0.4-1.9,0.4-3v-1.6H168v-6.8h15.7v6.1C183.7,38.8,183.4,41.3,182.8,43.2z"/>
		<path class="st0" d="M212,52.9l-2.5-7.4h-14.8l-2.5,7.4h-8.5l15.1-41.6h6.4l15.2,41.6H212z M202.3,23.5L197,38.7h10.3L202.3,23.5z
			"/>
		<path class="st0" d="M245.6,52.9l-8.1-16.6h-5.8v16.6h-8.1V11.2h16.3c2.1,0,4,0.3,5.7,1c1.7,0.7,3.1,1.6,4.3,2.7
			c1.2,1.2,2.1,2.5,2.7,4c0.6,1.5,0.9,3.2,0.9,4.9c0,1.4-0.2,2.8-0.6,3.9c-0.4,1.2-1,2.2-1.7,3.2c-0.7,0.9-1.5,1.7-2.4,2.3
			c-0.9,0.6-1.9,1.1-2.9,1.5l9.3,17.9H245.6z M245.2,24c0-1.6-0.5-2.9-1.6-4c-1.1-1-2.5-1.5-4.3-1.5h-7.7v10.9h7.7
			c1.8,0,3.2-0.5,4.3-1.5C244.6,26.9,245.2,25.6,245.2,24z"/>
	</g>
	<g>
		<g>
			<path class="st0" d="M97.7,59.9v9.3h-2.2v-9.3h-2.9v-2h8.1v2H97.7z"/>
			<path class="st0" d="M108.9,69.1l-0.7-2h-4l-0.7,2h-2.3l4.1-11.2h1.7l4.1,11.2H108.9z M106.2,61.2l-1.4,4.1h2.8L106.2,61.2z"/>
			<path class="st0" d="M120.6,61.4c0,0.5-0.1,0.9-0.3,1.4c-0.2,0.4-0.4,0.8-0.7,1.1c-0.3,0.3-0.7,0.6-1.2,0.8s-1,0.3-1.6,0.3h-2.2
				v4.2h-2.2V57.9h4.4c0.6,0,1.1,0.1,1.6,0.3s0.8,0.4,1.2,0.8c0.3,0.3,0.6,0.7,0.7,1.1C120.5,60.5,120.6,60.9,120.6,61.4z
				 M118.4,61.4c0-0.5-0.1-0.8-0.4-1.1c-0.3-0.3-0.7-0.4-1.2-0.4h-2.1v3.1h2.1c0.5,0,0.9-0.1,1.2-0.4
				C118.3,62.2,118.4,61.9,118.4,61.4z"/>
			<path class="st0" d="M130.2,66.9c-0.2,0.5-0.5,0.9-0.9,1.2c-0.4,0.3-0.8,0.6-1.3,0.8c-0.5,0.2-1,0.3-1.6,0.3s-1.1-0.1-1.6-0.3
				c-0.5-0.2-0.9-0.5-1.3-0.8c-0.4-0.3-0.7-0.8-0.9-1.2c-0.2-0.5-0.3-1-0.3-1.6v-7.4h2.2v7.3c0,0.7,0.2,1.2,0.5,1.5
				c0.3,0.4,0.8,0.5,1.4,0.5c0.6,0,1.1-0.2,1.4-0.5s0.5-0.9,0.5-1.5v-7.3h2.2v7.4C130.6,65.9,130.5,66.4,130.2,66.9z"/>
			<path class="st0" d="M144.4,66.5c-0.2,0.5-0.4,1-0.8,1.4c-0.5,0.5-0.9,0.8-1.5,1c-0.5,0.2-1.1,0.3-1.7,0.3
				c-0.6,0-1.2-0.1-1.7-0.3s-1-0.5-1.4-0.9c-0.3-0.3-0.5-0.6-0.7-0.9c-0.2-0.3-0.3-0.7-0.3-1c-0.1-0.4-0.1-0.8-0.1-1.2
				c0-0.4,0-0.9,0-1.4c0-0.5,0-0.9,0-1.4c0-0.4,0-0.8,0.1-1.2c0.1-0.4,0.2-0.7,0.3-1c0.2-0.3,0.4-0.6,0.7-0.9
				c0.4-0.4,0.8-0.7,1.3-0.9c0.5-0.2,1.1-0.3,1.7-0.3c0.7,0,1.2,0.1,1.7,0.3c0.5,0.2,0.9,0.5,1.3,0.8c0.3,0.3,0.6,0.7,0.8,1.2
				c0.2,0.4,0.3,0.9,0.4,1.4h-2.2c-0.1-0.5-0.4-0.9-0.7-1.2c-0.3-0.3-0.8-0.4-1.3-0.4c-0.3,0-0.6,0.1-0.8,0.2s-0.4,0.3-0.6,0.4
				c-0.1,0.1-0.2,0.2-0.3,0.4c-0.1,0.1-0.1,0.3-0.2,0.6c0,0.2-0.1,0.5-0.1,0.9c0,0.4,0,0.8,0,1.3s0,1,0,1.3c0,0.4,0,0.7,0.1,0.9
				c0,0.2,0.1,0.4,0.2,0.6c0.1,0.1,0.2,0.3,0.3,0.4c0.2,0.2,0.4,0.3,0.6,0.4c0.2,0.1,0.5,0.2,0.8,0.2c0.3,0,0.6-0.1,0.9-0.2
				c0.3-0.1,0.5-0.3,0.7-0.5c0.2-0.2,0.3-0.4,0.4-0.7c0.1-0.2,0.1-0.5,0.1-0.8v-0.4h-2.1v-1.8h4.2v1.6
				C144.7,65.3,144.6,66,144.4,66.5z"/>
			<path class="st0" d="M153.3,69.1l-0.7-2h-4l-0.7,2h-2.3l4.1-11.2h1.7l4.1,11.2H153.3z M150.7,61.2l-1.4,4.1h2.8L150.7,61.2z"/>
			<path class="st0" d="M163,69.1l-2.2-4.5h-1.6v4.5H157V57.9h4.4c0.6,0,1.1,0.1,1.5,0.3c0.5,0.2,0.8,0.4,1.2,0.7
				c0.3,0.3,0.6,0.7,0.7,1.1c0.2,0.4,0.2,0.9,0.2,1.3c0,0.4-0.1,0.7-0.2,1.1c-0.1,0.3-0.3,0.6-0.5,0.9c-0.2,0.2-0.4,0.5-0.7,0.6
				c-0.2,0.2-0.5,0.3-0.8,0.4l2.5,4.8H163z M162.8,61.3c0-0.4-0.1-0.8-0.4-1.1c-0.3-0.3-0.7-0.4-1.2-0.4h-2.1v3h2.1
				c0.5,0,0.9-0.1,1.2-0.4C162.7,62.1,162.8,61.8,162.8,61.3z"/>
			<path class="st0" d="M173.7,69.1l-0.7-2h-4l-0.7,2h-2.3l4.1-11.2h1.7l4.1,11.2H173.7z M171.1,61.2l-1.4,4.1h2.8L171.1,61.2z"/>
			<path class="st0" d="M184,69.1l-4.5-6.9v6.9h-2.2V57.9h2l4.5,6.9v-6.9h2.2v11.2H184z"/>
			<path class="st0" d="M192.9,59.9v9.3h-2.2v-9.3h-2.9v-2h8.1v2H192.9z"/>
			<path class="st0" d="M197.5,59.5v-1.7h2.1v1.7H197.5z M197.5,69.1v-8.2h2.1v8.2H197.5z"/>
			<path class="st0" d="M211.7,69.1v-4.7h-3.8v4.7h-2.2V57.9h2.2v4.6h3.8v-4.6h2.2v11.2H211.7z"/>
			<path class="st0" d="M216.3,59.5v-1.7h2.1v1.7H216.3z M216.3,69.1v-8.2h2.1v8.2H216.3z"/>
			<path class="st0" d="M220.1,69.1v-1.8l4.8-7.5h-4.6v-2h7.2v1.7l-4.8,7.6h4.8v2H220.1z"/>
			<path class="st0" d="M229.2,69.1v-2.3h2.4v2.3H229.2z"/>
			<path class="st0" d="M244,69.1l-0.7-2h-4l-0.7,2h-2.3l4.1-11.2h1.7l4.1,11.2H244z M241.4,61.2l-1.4,4.1h2.8L241.4,61.2z"/>
			<path class="st0" d="M250,71.3v-2.1c-0.7-0.1-1.3-0.2-1.8-0.4c-0.5-0.2-1-0.6-1.5-1l1.4-1.4c0.4,0.4,0.8,0.6,1.2,0.7
				c0.5,0.1,1,0.2,1.5,0.2c0.7,0,1.1-0.1,1.5-0.4c0.3-0.2,0.5-0.6,0.5-1c0-0.4-0.1-0.7-0.3-0.9c-0.1-0.1-0.2-0.2-0.4-0.2
				c-0.1-0.1-0.3-0.1-0.6-0.2l-1.4-0.2c-1-0.1-1.7-0.4-2.2-0.9c-0.5-0.5-0.8-1.3-0.8-2.2c0-0.5,0.1-1,0.3-1.4
				c0.2-0.4,0.4-0.8,0.8-1.1c0.3-0.3,0.7-0.5,1.2-0.7c0.5-0.2,1-0.3,1.6-0.3c0.8,0,1.5,0.1,2,0.3c0.6,0.2,1.1,0.5,1.6,1l-1.4,1.4
				c-0.4-0.3-0.7-0.6-1.1-0.6c-0.4-0.1-0.8-0.1-1.2-0.1c-0.6,0-1,0.1-1.3,0.4c-0.3,0.3-0.4,0.6-0.4,1c0,0.1,0,0.3,0.1,0.4
				c0.1,0.1,0.1,0.3,0.3,0.4c0.1,0.1,0.3,0.2,0.4,0.3c0.2,0.1,0.4,0.1,0.6,0.2l1.3,0.2c0.5,0.1,0.9,0.2,1.3,0.3
				c0.3,0.1,0.6,0.3,0.9,0.5c0.3,0.3,0.5,0.6,0.7,1c0.1,0.4,0.2,0.9,0.2,1.4c0,0.5-0.1,0.9-0.2,1.3c-0.2,0.4-0.4,0.7-0.6,1
				c-0.3,0.3-0.6,0.5-1,0.7c-0.4,0.2-0.8,0.3-1.3,0.4v2.1H250z"/>
		</g>
	</g>
</g>
</svg>
